# xmcd
#
# Track frame offsets:
#	150
#	13531
#	27376
#	43120
#	51814
#	67122
#	78433
#	88918
#	100373
#	111082
#	122733
#	133321
#	143014
#	157099
#	171172
#	185092
#	195554
#	214823
#	226565
#
# Disc length: 3161 seconds
#
# Revision: 0
# Processed by: cddbd v1.5.2PL0 Copyright (c) Steve Scherf et al.
# Submitted via: EasyCDDAExtractor 16.0.8.2
#
DISCID=120c5713
DTITLE=Συλλογικός δίσκος - Τα ωραιότερα ιταλικά τραγούδια 3
DYEAR=2011
DGENRE=Ξένη ιταλική
TTITLE0=Mina - Tintarella di luna
TTITLE1=Marino Marini - La piu bella del mondo
TTITLE2=Sophia Loren - Mambo bacan
TTITLE3=Adriano Celentano - Iragazzi del juke box
TTITLE4=Renato Carosone - Luna rossa
TTITLE5=Johnny Dorelli - Montecarlo
TTITLE6=Sergio Endrigo con Gianfranco Reverberi - I tuoi vent'anni
TTITLE7=Connie Francis - Torero
TTITLE8=Gino Paoli - La gatta
TTITLE9=Fausto Papetti - La dolce vita
TTITLE10=Adriano Celentano - Nessuno credera
TTITLE11=Mina - Renato
TTITLE12=Gianni Meccia - Il Barattolo
TTITLE13=Teddy Reno - ''A'' come amore
TTITLE14=Connie Francis - Anema e core
TTITLE15=Adriano Celentano - Il ribelle
TTITLE16=Peppino di Capri - Luna Carpese
TTITLE17=Marino Marini - Piove
TTITLE18=Domenico Modugno - La donna riccia
EXTD=
EXTT0=
EXTT1=
EXTT2=
EXTT3=
EXTT4=
EXTT5=
EXTT6=
EXTT7=
EXTT8=
EXTT9=
EXTT10=
EXTT11=
EXTT12=
EXTT13=
EXTT14=
EXTT15=
EXTT16=
EXTT17=
EXTT18=
PLAYORDER=
